<svg width="253" height="39" viewBox="0 0 253 39" fill="none" xmlns="http://www.w3.org/2000/svg">
<path d="M31.5549 31.2087C30.6604 31.2087 29.9678 30.9778 29.4772 30.5161C29.0155 30.0255 28.7847 29.333 28.7847 28.4384V12.0766C28.7847 11.182 29.0155 10.5039 29.4772 10.0422C29.939 9.58047 30.5882 9.34961 31.4251 9.34961C32.2619 9.34961 32.9112 9.58047 33.3729 10.0422C33.8346 10.5039 34.0655 11.182 34.0655 12.0766V14.8036H33.6326C34.0366 13.0721 34.8302 11.7592 36.0133 10.8646C37.1964 9.97003 38.7691 9.43618 40.7314 9.26304C41.3374 9.20533 41.8135 9.36404 42.1598 9.73918C42.535 10.0855 42.7514 10.6337 42.8091 11.384C42.8668 12.1054 42.6937 12.697 42.2897 13.1587C41.9145 13.5916 41.3374 13.8513 40.5583 13.9378L39.606 14.0244C37.8457 14.1976 36.5183 14.7458 35.6238 15.6693C34.7292 16.5638 34.2819 17.8335 34.2819 19.4784V28.4384C34.2819 29.333 34.0511 30.0255 33.5893 30.5161C33.1276 30.9778 32.4495 31.2087 31.5549 31.2087Z" fill="white"/>
<path d="M31.5549 31.2087C30.6604 31.2087 29.9678 30.9778 29.4772 30.5161C29.0155 30.0255 28.7847 29.333 28.7847 28.4384V12.0766C28.7847 11.182 29.0155 10.5039 29.4772 10.0422C29.939 9.58047 30.5882 9.34961 31.4251 9.34961C32.2619 9.34961 32.9112 9.58047 33.3729 10.0422C33.8346 10.5039 34.0655 11.182 34.0655 12.0766V14.8036H33.6326C34.0366 13.0721 34.8302 11.7592 36.0133 10.8646C37.1964 9.97003 38.7691 9.43618 40.7314 9.26304C41.3374 9.20533 41.8135 9.36404 42.1598 9.73918C42.535 10.0855 42.7514 10.6337 42.8091 11.384C42.8668 12.1054 42.6937 12.697 42.2897 13.1587C41.9145 13.5916 41.3374 13.8513 40.5583 13.9378L39.606 14.0244C37.8457 14.1976 36.5183 14.7458 35.6238 15.6693C34.7292 16.5638 34.2819 17.8335 34.2819 19.4784V28.4384C34.2819 29.333 34.0511 30.0255 33.5893 30.5161C33.1276 30.9778 32.4495 31.2087 31.5549 31.2087Z" fill="#86FFC5"/>
<path d="M55.8288 31.2952C53.4337 31.2952 51.3705 30.8479 49.639 29.9534C47.9076 29.0588 46.5658 27.7891 45.6135 26.1443C44.6901 24.4994 44.2284 22.5516 44.2284 20.3008C44.2284 18.1077 44.6757 16.1887 45.5702 14.5438C46.4936 12.899 47.7489 11.6149 49.336 10.6915C50.952 9.73918 52.7844 9.26304 54.8333 9.26304C56.3338 9.26304 57.6757 9.50833 58.8588 9.99889C60.0708 10.4895 61.0952 11.1964 61.9321 12.1199C62.7978 13.0433 63.447 14.1687 63.8799 15.4961C64.3416 16.7947 64.5724 18.2664 64.5724 19.9112C64.5724 20.4306 64.3849 20.8346 64.0097 21.1232C63.6635 21.3829 63.1585 21.5128 62.4948 21.5128H48.6002V18.3962H60.7633L60.0708 19.0455C60.0708 17.7181 59.8688 16.6071 59.4648 15.7125C59.0897 14.818 58.5269 14.1398 57.7767 13.6781C57.0552 13.1876 56.1463 12.9423 55.0497 12.9423C53.8377 12.9423 52.7989 13.2309 51.9332 13.808C51.0963 14.3563 50.447 15.1498 49.9853 16.1887C49.5525 17.1987 49.336 18.4107 49.336 19.8246V20.1276C49.336 22.4939 49.8843 24.2686 50.9809 25.4517C52.1063 26.606 53.7511 27.1831 55.9154 27.1831C56.6657 27.1831 57.5025 27.0966 58.4259 26.9234C59.3782 26.7214 60.2728 26.3896 61.1096 25.9279C61.7156 25.5816 62.2495 25.4373 62.7112 25.495C63.1729 25.5239 63.5336 25.6826 63.7933 25.9711C64.0819 26.2597 64.255 26.6204 64.3127 27.0533C64.3705 27.4573 64.2839 27.8757 64.053 28.3085C63.851 28.7414 63.4903 29.1165 62.9709 29.434C61.9609 30.0688 60.7922 30.545 59.4648 30.8624C58.1662 31.1509 56.9543 31.2952 55.8288 31.2952Z" fill="white"/>
<path d="M55.8288 31.2952C53.4337 31.2952 51.3705 30.8479 49.639 29.9534C47.9076 29.0588 46.5658 27.7891 45.6135 26.1443C44.6901 24.4994 44.2284 22.5516 44.2284 20.3008C44.2284 18.1077 44.6757 16.1887 45.5702 14.5438C46.4936 12.899 47.7489 11.6149 49.336 10.6915C50.952 9.73918 52.7844 9.26304 54.8333 9.26304C56.3338 9.26304 57.6757 9.50833 58.8588 9.99889C60.0708 10.4895 61.0952 11.1964 61.9321 12.1199C62.7978 13.0433 63.447 14.1687 63.8799 15.4961C64.3416 16.7947 64.5724 18.2664 64.5724 19.9112C64.5724 20.4306 64.3849 20.8346 64.0097 21.1232C63.6635 21.3829 63.1585 21.5128 62.4948 21.5128H48.6002V18.3962H60.7633L60.0708 19.0455C60.0708 17.7181 59.8688 16.6071 59.4648 15.7125C59.0897 14.818 58.5269 14.1398 57.7767 13.6781C57.0552 13.1876 56.1463 12.9423 55.0497 12.9423C53.8377 12.9423 52.7989 13.2309 51.9332 13.808C51.0963 14.3563 50.447 15.1498 49.9853 16.1887C49.5525 17.1987 49.336 18.4107 49.336 19.8246V20.1276C49.336 22.4939 49.8843 24.2686 50.9809 25.4517C52.1063 26.606 53.7511 27.1831 55.9154 27.1831C56.6657 27.1831 57.5025 27.0966 58.4259 26.9234C59.3782 26.7214 60.2728 26.3896 61.1096 25.9279C61.7156 25.5816 62.2495 25.4373 62.7112 25.495C63.1729 25.5239 63.5336 25.6826 63.7933 25.9711C64.0819 26.2597 64.255 26.6204 64.3127 27.0533C64.3705 27.4573 64.2839 27.8757 64.053 28.3085C63.851 28.7414 63.4903 29.1165 62.9709 29.434C61.9609 30.0688 60.7922 30.545 59.4648 30.8624C58.1662 31.1509 56.9543 31.2952 55.8288 31.2952Z" fill="#86FFC5"/>
<path d="M76.995 31.2952C75.1481 31.2952 73.5177 30.8479 72.1037 29.9534C70.7186 29.0588 69.6365 27.7891 68.8573 26.1443C68.0782 24.4706 67.6887 22.5083 67.6887 20.2575C67.6887 17.9778 68.0782 16.03 68.8573 14.414C69.6365 12.7691 70.7186 11.4994 72.1037 10.6049C73.5177 9.71032 75.1481 9.26304 76.995 9.26304C78.7552 9.26304 80.2847 9.6959 81.5832 10.5616C82.9106 11.4273 83.8052 12.5671 84.2669 13.9811H83.7908V2.72697C83.7908 1.83241 84.0216 1.15427 84.4833 0.692565C84.945 0.230855 85.6087 0 86.4744 0C87.3402 0 88.0039 0.230855 88.4656 0.692565C88.9561 1.15427 89.2014 1.83241 89.2014 2.72697V28.4384C89.2014 29.333 88.9706 30.0255 88.5089 30.5161C88.0471 30.9778 87.3834 31.2087 86.5177 31.2087C85.652 31.2087 84.9883 30.9778 84.5266 30.5161C84.0649 30.0255 83.834 29.333 83.834 28.4384V25.0622L84.3102 26.3607C83.8773 27.8613 82.9972 29.0588 81.6698 29.9534C80.3424 30.8479 78.7841 31.2952 76.995 31.2952ZM78.51 27.1831C79.5777 27.1831 80.5155 26.9234 81.3235 26.404C82.1315 25.8846 82.7519 25.1199 83.1848 24.1099C83.6465 23.071 83.8773 21.7869 83.8773 20.2575C83.8773 17.9489 83.3868 16.232 82.4056 15.1065C81.4245 13.9523 80.1259 13.3751 78.51 13.3751C77.4423 13.3751 76.5044 13.6349 75.6964 14.1543C74.8884 14.6448 74.2536 15.4095 73.7919 16.4484C73.359 17.4584 73.1426 18.7281 73.1426 20.2575C73.1426 22.5372 73.6332 24.2686 74.6143 25.4517C75.5954 26.606 76.894 27.1831 78.51 27.1831Z" fill="white"/>
<path d="M76.995 31.2952C75.1481 31.2952 73.5177 30.8479 72.1037 29.9534C70.7186 29.0588 69.6365 27.7891 68.8573 26.1443C68.0782 24.4706 67.6887 22.5083 67.6887 20.2575C67.6887 17.9778 68.0782 16.03 68.8573 14.414C69.6365 12.7691 70.7186 11.4994 72.1037 10.6049C73.5177 9.71032 75.1481 9.26304 76.995 9.26304C78.7552 9.26304 80.2847 9.6959 81.5832 10.5616C82.9106 11.4273 83.8052 12.5671 84.2669 13.9811H83.7908V2.72697C83.7908 1.83241 84.0216 1.15427 84.4833 0.692565C84.945 0.230855 85.6087 0 86.4744 0C87.3402 0 88.0039 0.230855 88.4656 0.692565C88.9561 1.15427 89.2014 1.83241 89.2014 2.72697V28.4384C89.2014 29.333 88.9706 30.0255 88.5089 30.5161C88.0471 30.9778 87.3834 31.2087 86.5177 31.2087C85.652 31.2087 84.9883 30.9778 84.5266 30.5161C84.0649 30.0255 83.834 29.333 83.834 28.4384V25.0622L84.3102 26.3607C83.8773 27.8613 82.9972 29.0588 81.6698 29.9534C80.3424 30.8479 78.7841 31.2952 76.995 31.2952ZM78.51 27.1831C79.5777 27.1831 80.5155 26.9234 81.3235 26.404C82.1315 25.8846 82.7519 25.1199 83.1848 24.1099C83.6465 23.071 83.8773 21.7869 83.8773 20.2575C83.8773 17.9489 83.3868 16.232 82.4056 15.1065C81.4245 13.9523 80.1259 13.3751 78.51 13.3751C77.4423 13.3751 76.5044 13.6349 75.6964 14.1543C74.8884 14.6448 74.2536 15.4095 73.7919 16.4484C73.359 17.4584 73.1426 18.7281 73.1426 20.2575C73.1426 22.5372 73.6332 24.2686 74.6143 25.4517C75.5954 26.606 76.894 27.1831 78.51 27.1831Z" fill="#86FFC5"/>
<path d="M101.781 31.2952C100.251 31.2952 98.8804 31.0067 97.6684 30.4295C96.4853 29.8235 95.5474 29.0155 94.8549 28.0056C94.1912 26.9956 93.8593 25.8557 93.8593 24.586C93.8593 23.0277 94.2633 21.8013 95.0713 20.9068C95.8793 19.9834 97.1923 19.3196 99.0103 18.9156C100.828 18.5117 103.267 18.3097 106.325 18.3097H108.49V21.4262H106.369C104.58 21.4262 103.151 21.5128 102.084 21.6859C101.016 21.859 100.251 22.162 99.7894 22.5949C99.3565 22.9989 99.1401 23.576 99.1401 24.3263C99.1401 25.2786 99.472 26.0577 100.136 26.6637C100.799 27.2697 101.723 27.5727 102.906 27.5727C103.858 27.5727 104.695 27.3563 105.416 26.9234C106.167 26.4617 106.758 25.8413 107.191 25.0622C107.624 24.283 107.84 23.3885 107.84 22.3785V17.4007C107.84 15.9578 107.523 14.919 106.888 14.2841C106.253 13.6493 105.186 13.3319 103.685 13.3319C102.848 13.3319 101.939 13.4329 100.958 13.6349C100.006 13.8368 98.9958 14.1831 97.9281 14.6737C97.3798 14.9334 96.8893 15.0056 96.4564 14.8901C96.0524 14.7747 95.735 14.5438 95.5042 14.1976C95.2733 13.8224 95.1579 13.4184 95.1579 12.9856C95.1579 12.5527 95.2733 12.1343 95.5042 11.7303C95.735 11.2974 96.1246 10.98 96.6729 10.778C98.0003 10.2297 99.27 9.84018 100.482 9.60932C101.723 9.37847 102.848 9.26304 103.858 9.26304C105.936 9.26304 107.638 9.58047 108.966 10.2153C110.322 10.8502 111.332 11.8169 111.996 13.1154C112.66 14.3851 112.991 16.03 112.991 18.0499V28.4384C112.991 29.333 112.775 30.0255 112.342 30.5161C111.909 30.9778 111.289 31.2087 110.481 31.2087C109.673 31.2087 109.038 30.9778 108.576 30.5161C108.143 30.0255 107.927 29.333 107.927 28.4384V26.3607H108.273C108.071 27.3707 107.667 28.2508 107.061 29.0011C106.484 29.7225 105.748 30.2852 104.854 30.6892C103.959 31.0932 102.935 31.2952 101.781 31.2952Z" fill="white"/>
<path d="M101.781 31.2952C100.251 31.2952 98.8804 31.0067 97.6684 30.4295C96.4853 29.8235 95.5474 29.0155 94.8549 28.0056C94.1912 26.9956 93.8593 25.8557 93.8593 24.586C93.8593 23.0277 94.2633 21.8013 95.0713 20.9068C95.8793 19.9834 97.1923 19.3196 99.0103 18.9156C100.828 18.5117 103.267 18.3097 106.325 18.3097H108.49V21.4262H106.369C104.58 21.4262 103.151 21.5128 102.084 21.6859C101.016 21.859 100.251 22.162 99.7894 22.5949C99.3565 22.9989 99.1401 23.576 99.1401 24.3263C99.1401 25.2786 99.472 26.0577 100.136 26.6637C100.799 27.2697 101.723 27.5727 102.906 27.5727C103.858 27.5727 104.695 27.3563 105.416 26.9234C106.167 26.4617 106.758 25.8413 107.191 25.0622C107.624 24.283 107.84 23.3885 107.84 22.3785V17.4007C107.84 15.9578 107.523 14.919 106.888 14.2841C106.253 13.6493 105.186 13.3319 103.685 13.3319C102.848 13.3319 101.939 13.4329 100.958 13.6349C100.006 13.8368 98.9958 14.1831 97.9281 14.6737C97.3798 14.9334 96.8893 15.0056 96.4564 14.8901C96.0524 14.7747 95.735 14.5438 95.5042 14.1976C95.2733 13.8224 95.1579 13.4184 95.1579 12.9856C95.1579 12.5527 95.2733 12.1343 95.5042 11.7303C95.735 11.2974 96.1246 10.98 96.6729 10.778C98.0003 10.2297 99.27 9.84018 100.482 9.60932C101.723 9.37847 102.848 9.26304 103.858 9.26304C105.936 9.26304 107.638 9.58047 108.966 10.2153C110.322 10.8502 111.332 11.8169 111.996 13.1154C112.66 14.3851 112.991 16.03 112.991 18.0499V28.4384C112.991 29.333 112.775 30.0255 112.342 30.5161C111.909 30.9778 111.289 31.2087 110.481 31.2087C109.673 31.2087 109.038 30.9778 108.576 30.5161C108.143 30.0255 107.927 29.333 107.927 28.4384V26.3607H108.273C108.071 27.3707 107.667 28.2508 107.061 29.0011C106.484 29.7225 105.748 30.2852 104.854 30.6892C103.959 31.0932 102.935 31.2952 101.781 31.2952Z" fill="#86FFC5"/>
<path d="M128.266 31.2952C126.044 31.2952 124.11 30.8479 122.465 29.9534C120.821 29.03 119.551 27.7314 118.656 26.0577C117.762 24.384 117.314 22.4218 117.314 20.1709C117.314 18.4684 117.56 16.9534 118.05 15.626C118.57 14.2697 119.306 13.1299 120.258 12.2064C121.21 11.2542 122.364 10.5327 123.721 10.0422C125.077 9.52275 126.592 9.26304 128.266 9.26304C129.218 9.26304 130.242 9.3929 131.339 9.65261C132.464 9.91232 133.518 10.3452 134.499 10.9512C134.96 11.2397 135.263 11.586 135.408 11.99C135.552 12.394 135.581 12.8124 135.494 13.2453C135.408 13.6493 135.22 14.01 134.932 14.3274C134.672 14.616 134.34 14.8036 133.936 14.8901C133.532 14.9478 133.085 14.8468 132.594 14.5871C131.959 14.212 131.31 13.9378 130.646 13.7647C129.983 13.5627 129.348 13.4617 128.742 13.4617C127.79 13.4617 126.953 13.6204 126.231 13.9378C125.51 14.2264 124.889 14.6593 124.37 15.2364C123.879 15.7847 123.504 16.4772 123.245 17.3141C122.985 18.1509 122.855 19.1176 122.855 20.2142C122.855 22.3496 123.36 24.0377 124.37 25.2786C125.409 26.4906 126.866 27.0966 128.742 27.0966C129.348 27.0966 129.968 27.01 130.603 26.8368C131.267 26.6637 131.93 26.3896 132.594 26.0144C133.085 25.7547 133.518 25.6681 133.893 25.7547C134.297 25.8413 134.629 26.0433 134.888 26.3607C135.148 26.6493 135.307 27.01 135.364 27.4428C135.422 27.8468 135.364 28.2508 135.191 28.6548C135.047 29.0588 134.758 29.3907 134.326 29.6504C133.373 30.2275 132.363 30.646 131.296 30.9057C130.228 31.1654 129.218 31.2952 128.266 31.2952Z" fill="white"/>
<path d="M128.266 31.2952C126.044 31.2952 124.11 30.8479 122.465 29.9534C120.821 29.03 119.551 27.7314 118.656 26.0577C117.762 24.384 117.314 22.4218 117.314 20.1709C117.314 18.4684 117.56 16.9534 118.05 15.626C118.57 14.2697 119.306 13.1299 120.258 12.2064C121.21 11.2542 122.364 10.5327 123.721 10.0422C125.077 9.52275 126.592 9.26304 128.266 9.26304C129.218 9.26304 130.242 9.3929 131.339 9.65261C132.464 9.91232 133.518 10.3452 134.499 10.9512C134.96 11.2397 135.263 11.586 135.408 11.99C135.552 12.394 135.581 12.8124 135.494 13.2453C135.408 13.6493 135.22 14.01 134.932 14.3274C134.672 14.616 134.34 14.8036 133.936 14.8901C133.532 14.9478 133.085 14.8468 132.594 14.5871C131.959 14.212 131.31 13.9378 130.646 13.7647C129.983 13.5627 129.348 13.4617 128.742 13.4617C127.79 13.4617 126.953 13.6204 126.231 13.9378C125.51 14.2264 124.889 14.6593 124.37 15.2364C123.879 15.7847 123.504 16.4772 123.245 17.3141C122.985 18.1509 122.855 19.1176 122.855 20.2142C122.855 22.3496 123.36 24.0377 124.37 25.2786C125.409 26.4906 126.866 27.0966 128.742 27.0966C129.348 27.0966 129.968 27.01 130.603 26.8368C131.267 26.6637 131.93 26.3896 132.594 26.0144C133.085 25.7547 133.518 25.6681 133.893 25.7547C134.297 25.8413 134.629 26.0433 134.888 26.3607C135.148 26.6493 135.307 27.01 135.364 27.4428C135.422 27.8468 135.364 28.2508 135.191 28.6548C135.047 29.0588 134.758 29.3907 134.326 29.6504C133.373 30.2275 132.363 30.646 131.296 30.9057C130.228 31.1654 129.218 31.2952 128.266 31.2952Z" fill="#86FFC5"/>
<path d="M148.68 31.2952C146.805 31.2952 145.232 30.9778 143.962 30.343C142.721 29.7081 141.798 28.7847 141.192 27.5727C140.586 26.3319 140.283 24.8024 140.283 22.9845V13.7647H138.032C137.34 13.7647 136.806 13.5916 136.431 13.2453C136.056 12.8701 135.868 12.3652 135.868 11.7303C135.868 11.0666 136.056 10.5616 136.431 10.2153C136.806 9.86904 137.34 9.69589 138.032 9.69589H140.283V5.75694C140.283 4.86238 140.514 4.18424 140.976 3.72253C141.466 3.26082 142.144 3.02997 143.01 3.02997C143.876 3.02997 144.539 3.26082 145.001 3.72253C145.463 4.18424 145.694 4.86238 145.694 5.75694V9.69589H150.282C150.975 9.69589 151.508 9.86904 151.884 10.2153C152.259 10.5616 152.446 11.0666 152.446 11.7303C152.446 12.3652 152.259 12.8701 151.884 13.2453C151.508 13.5916 150.975 13.7647 150.282 13.7647H145.694V22.6815C145.694 24.0666 145.997 25.1054 146.603 25.798C147.209 26.4906 148.19 26.8368 149.546 26.8368C150.037 26.8368 150.47 26.7936 150.845 26.707C151.22 26.6204 151.552 26.5627 151.84 26.5339C152.187 26.505 152.475 26.6204 152.706 26.8801C152.937 27.111 153.052 27.6016 153.052 28.3518C153.052 28.929 152.951 29.4484 152.749 29.9101C152.576 30.343 152.244 30.6459 151.754 30.8191C151.379 30.9345 150.888 31.0355 150.282 31.1221C149.676 31.2375 149.142 31.2952 148.68 31.2952Z" fill="white"/>
<path d="M148.68 31.2952C146.805 31.2952 145.232 30.9778 143.962 30.343C142.721 29.7081 141.798 28.7847 141.192 27.5727C140.586 26.3319 140.283 24.8024 140.283 22.9845V13.7647H138.032C137.34 13.7647 136.806 13.5916 136.431 13.2453C136.056 12.8701 135.868 12.3652 135.868 11.7303C135.868 11.0666 136.056 10.5616 136.431 10.2153C136.806 9.86904 137.34 9.69589 138.032 9.69589H140.283V5.75694C140.283 4.86238 140.514 4.18424 140.976 3.72253C141.466 3.26082 142.144 3.02997 143.01 3.02997C143.876 3.02997 144.539 3.26082 145.001 3.72253C145.463 4.18424 145.694 4.86238 145.694 5.75694V9.69589H150.282C150.975 9.69589 151.508 9.86904 151.884 10.2153C152.259 10.5616 152.446 11.0666 152.446 11.7303C152.446 12.3652 152.259 12.8701 151.884 13.2453C151.508 13.5916 150.975 13.7647 150.282 13.7647H145.694V22.6815C145.694 24.0666 145.997 25.1054 146.603 25.798C147.209 26.4906 148.19 26.8368 149.546 26.8368C150.037 26.8368 150.47 26.7936 150.845 26.707C151.22 26.6204 151.552 26.5627 151.84 26.5339C152.187 26.505 152.475 26.6204 152.706 26.8801C152.937 27.111 153.052 27.6016 153.052 28.3518C153.052 28.929 152.951 29.4484 152.749 29.9101C152.576 30.343 152.244 30.6459 151.754 30.8191C151.379 30.9345 150.888 31.0355 150.282 31.1221C149.676 31.2375 149.142 31.2952 148.68 31.2952Z" fill="#86FFC5"/>
<path d="M158.367 31.2087C157.473 31.2087 156.78 30.9778 156.289 30.5161C155.828 30.0255 155.597 29.333 155.597 28.4384V12.0766C155.597 11.182 155.828 10.5039 156.289 10.0422C156.751 9.58047 157.4 9.34961 158.237 9.34961C159.074 9.34961 159.723 9.58047 160.185 10.0422C160.647 10.5039 160.878 11.182 160.878 12.0766V14.8036H160.445C160.849 13.0721 161.642 11.7592 162.826 10.8646C164.009 9.97003 165.581 9.43618 167.544 9.26304C168.15 9.20533 168.626 9.36404 168.972 9.73918C169.347 10.0855 169.564 10.6337 169.621 11.384C169.679 12.1054 169.506 12.697 169.102 13.1587C168.727 13.5916 168.15 13.8513 167.37 13.9378L166.418 14.0244C164.658 14.1976 163.331 14.7458 162.436 15.6693C161.541 16.5638 161.094 17.8335 161.094 19.4784V28.4384C161.094 29.333 160.863 30.0255 160.402 30.5161C159.94 30.9778 159.262 31.2087 158.367 31.2087Z" fill="white"/>
<path d="M158.367 31.2087C157.473 31.2087 156.78 30.9778 156.289 30.5161C155.828 30.0255 155.597 29.333 155.597 28.4384V12.0766C155.597 11.182 155.828 10.5039 156.289 10.0422C156.751 9.58047 157.4 9.34961 158.237 9.34961C159.074 9.34961 159.723 9.58047 160.185 10.0422C160.647 10.5039 160.878 11.182 160.878 12.0766V14.8036H160.445C160.849 13.0721 161.642 11.7592 162.826 10.8646C164.009 9.97003 165.581 9.43618 167.544 9.26304C168.15 9.20533 168.626 9.36404 168.972 9.73918C169.347 10.0855 169.564 10.6337 169.621 11.384C169.679 12.1054 169.506 12.697 169.102 13.1587C168.727 13.5916 168.15 13.8513 167.37 13.9378L166.418 14.0244C164.658 14.1976 163.331 14.7458 162.436 15.6693C161.541 16.5638 161.094 17.8335 161.094 19.4784V28.4384C161.094 29.333 160.863 30.0255 160.402 30.5161C159.94 30.9778 159.262 31.2087 158.367 31.2087Z" fill="#86FFC5"/>
<path d="M173.37 31.2087C172.677 31.2087 172.115 31.0499 171.682 30.7325C171.278 30.4151 171.033 29.9967 170.946 29.4772C170.859 28.929 170.96 28.323 171.249 27.6593L182.676 2.3374C183.051 1.50056 183.499 0.908991 184.018 0.562709C184.566 0.18757 185.187 0 185.879 0C186.543 0 187.135 0.18757 187.654 0.562709C188.202 0.908991 188.664 1.50056 189.039 2.3374L200.51 27.6593C200.827 28.323 200.943 28.929 200.856 29.4772C200.769 30.0255 200.524 30.4584 200.12 30.7758C199.716 31.0644 199.182 31.2087 198.519 31.2087C197.711 31.2087 197.076 31.0211 196.614 30.6459C196.181 30.242 195.792 29.636 195.445 28.828L192.632 22.2919L194.969 23.8069H176.703L179.04 22.2919L176.27 28.828C175.895 29.6648 175.505 30.2708 175.101 30.6459C174.697 31.0211 174.12 31.2087 173.37 31.2087ZM185.793 6.36293L179.733 20.7769L178.607 19.3918H193.065L191.983 20.7769L185.879 6.36293H185.793Z" fill="white"/>
<path d="M173.37 31.2087C172.677 31.2087 172.115 31.0499 171.682 30.7325C171.278 30.4151 171.033 29.9967 170.946 29.4772C170.859 28.929 170.96 28.323 171.249 27.6593L182.676 2.3374C183.051 1.50056 183.499 0.908991 184.018 0.562709C184.566 0.18757 185.187 0 185.879 0C186.543 0 187.135 0.18757 187.654 0.562709C188.202 0.908991 188.664 1.50056 189.039 2.3374L200.51 27.6593C200.827 28.323 200.943 28.929 200.856 29.4772C200.769 30.0255 200.524 30.4584 200.12 30.7758C199.716 31.0644 199.182 31.2087 198.519 31.2087C197.711 31.2087 197.076 31.0211 196.614 30.6459C196.181 30.242 195.792 29.636 195.445 28.828L192.632 22.2919L194.969 23.8069H176.703L179.04 22.2919L176.27 28.828C175.895 29.6648 175.505 30.2708 175.101 30.6459C174.697 31.0211 174.12 31.2087 173.37 31.2087ZM185.793 6.36293L179.733 20.7769L178.607 19.3918H193.065L191.983 20.7769L185.879 6.36293H185.793Z" fill="#86FFC5"/>
<path d="M207.441 39C206.576 39 205.912 38.7691 205.45 38.3074C204.989 37.8457 204.758 37.1676 204.758 36.273V12.0766C204.758 11.182 204.989 10.5039 205.45 10.0422C205.912 9.58047 206.561 9.34961 207.398 9.34961C208.264 9.34961 208.928 9.58047 209.389 10.0422C209.851 10.5039 210.082 11.182 210.082 12.0766V15.4528L209.606 14.1543C210.039 12.6826 210.919 11.4994 212.246 10.6049C213.602 9.71032 215.175 9.26304 216.964 9.26304C218.811 9.26304 220.427 9.71032 221.812 10.6049C223.226 11.4994 224.323 12.7691 225.102 14.414C225.881 16.03 226.271 17.9778 226.271 20.2575C226.271 22.5083 225.881 24.4706 225.102 26.1443C224.323 27.7891 223.241 29.0588 221.855 29.9534C220.47 30.8479 218.84 31.2952 216.964 31.2952C215.204 31.2952 213.66 30.8624 212.333 29.9967C211.005 29.1021 210.111 27.9478 209.649 26.5339H210.168V36.273C210.168 37.1676 209.923 37.8457 209.433 38.3074C208.971 38.7691 208.307 39 207.441 39ZM215.449 27.1831C216.517 27.1831 217.455 26.9234 218.263 26.404C219.071 25.8846 219.691 25.1199 220.124 24.1099C220.586 23.071 220.817 21.7869 220.817 20.2575C220.817 17.9489 220.326 16.232 219.345 15.1065C218.364 13.9523 217.065 13.3751 215.449 13.3751C214.382 13.3751 213.444 13.6349 212.636 14.1543C211.828 14.6448 211.193 15.4095 210.731 16.4484C210.298 17.4584 210.082 18.7281 210.082 20.2575C210.082 22.5372 210.572 24.2686 211.554 25.4517C212.535 26.606 213.833 27.1831 215.449 27.1831Z" fill="white"/>
<path d="M207.441 39C206.576 39 205.912 38.7691 205.45 38.3074C204.989 37.8457 204.758 37.1676 204.758 36.273V12.0766C204.758 11.182 204.989 10.5039 205.45 10.0422C205.912 9.58047 206.561 9.34961 207.398 9.34961C208.264 9.34961 208.928 9.58047 209.389 10.0422C209.851 10.5039 210.082 11.182 210.082 12.0766V15.4528L209.606 14.1543C210.039 12.6826 210.919 11.4994 212.246 10.6049C213.602 9.71032 215.175 9.26304 216.964 9.26304C218.811 9.26304 220.427 9.71032 221.812 10.6049C223.226 11.4994 224.323 12.7691 225.102 14.414C225.881 16.03 226.271 17.9778 226.271 20.2575C226.271 22.5083 225.881 24.4706 225.102 26.1443C224.323 27.7891 223.241 29.0588 221.855 29.9534C220.47 30.8479 218.84 31.2952 216.964 31.2952C215.204 31.2952 213.66 30.8624 212.333 29.9967C211.005 29.1021 210.111 27.9478 209.649 26.5339H210.168V36.273C210.168 37.1676 209.923 37.8457 209.433 38.3074C208.971 38.7691 208.307 39 207.441 39ZM215.449 27.1831C216.517 27.1831 217.455 26.9234 218.263 26.404C219.071 25.8846 219.691 25.1199 220.124 24.1099C220.586 23.071 220.817 21.7869 220.817 20.2575C220.817 17.9489 220.326 16.232 219.345 15.1065C218.364 13.9523 217.065 13.3751 215.449 13.3751C214.382 13.3751 213.444 13.6349 212.636 14.1543C211.828 14.6448 211.193 15.4095 210.731 16.4484C210.298 17.4584 210.082 18.7281 210.082 20.2575C210.082 22.5372 210.572 24.2686 211.554 25.4517C212.535 26.606 213.833 27.1831 215.449 27.1831Z" fill="#86FFC5"/>
<path d="M233.396 39C232.53 39 231.866 38.7691 231.405 38.3074C230.943 37.8457 230.712 37.1676 230.712 36.273V12.0766C230.712 11.182 230.943 10.5039 231.405 10.0422C231.866 9.58047 232.516 9.34961 233.352 9.34961C234.218 9.34961 234.882 9.58047 235.344 10.0422C235.805 10.5039 236.036 11.182 236.036 12.0766V15.4528L235.56 14.1543C235.993 12.6826 236.873 11.4994 238.2 10.6049C239.557 9.71032 241.129 9.26304 242.918 9.26304C244.765 9.26304 246.381 9.71032 247.766 10.6049C249.18 11.4994 250.277 12.7691 251.056 14.414C251.835 16.03 252.225 17.9778 252.225 20.2575C252.225 22.5083 251.835 24.4706 251.056 26.1443C250.277 27.7891 249.195 29.0588 247.81 29.9534C246.425 30.8479 244.794 31.2952 242.918 31.2952C241.158 31.2952 239.614 30.8624 238.287 29.9967C236.96 29.1021 236.065 27.9478 235.603 26.5339H236.123V36.273C236.123 37.1676 235.877 37.8457 235.387 38.3074C234.925 38.7691 234.261 39 233.396 39ZM241.403 27.1831C242.471 27.1831 243.409 26.9234 244.217 26.404C245.025 25.8846 245.645 25.1199 246.078 24.1099C246.54 23.071 246.771 21.7869 246.771 20.2575C246.771 17.9489 246.28 16.232 245.299 15.1065C244.318 13.9523 243.019 13.3751 241.403 13.3751C240.336 13.3751 239.398 13.6349 238.59 14.1543C237.782 14.6448 237.147 15.4095 236.685 16.4484C236.253 17.4584 236.036 18.7281 236.036 20.2575C236.036 22.5372 236.527 24.2686 237.508 25.4517C238.489 26.606 239.787 27.1831 241.403 27.1831Z" fill="white"/>
<path d="M233.396 39C232.53 39 231.866 38.7691 231.405 38.3074C230.943 37.8457 230.712 37.1676 230.712 36.273V12.0766C230.712 11.182 230.943 10.5039 231.405 10.0422C231.866 9.58047 232.516 9.34961 233.352 9.34961C234.218 9.34961 234.882 9.58047 235.344 10.0422C235.805 10.5039 236.036 11.182 236.036 12.0766V15.4528L235.56 14.1543C235.993 12.6826 236.873 11.4994 238.2 10.6049C239.557 9.71032 241.129 9.26304 242.918 9.26304C244.765 9.26304 246.381 9.71032 247.766 10.6049C249.18 11.4994 250.277 12.7691 251.056 14.414C251.835 16.03 252.225 17.9778 252.225 20.2575C252.225 22.5083 251.835 24.4706 251.056 26.1443C250.277 27.7891 249.195 29.0588 247.81 29.9534C246.425 30.8479 244.794 31.2952 242.918 31.2952C241.158 31.2952 239.614 30.8624 238.287 29.9967C236.96 29.1021 236.065 27.9478 235.603 26.5339H236.123V36.273C236.123 37.1676 235.877 37.8457 235.387 38.3074C234.925 38.7691 234.261 39 233.396 39ZM241.403 27.1831C242.471 27.1831 243.409 26.9234 244.217 26.404C245.025 25.8846 245.645 25.1199 246.078 24.1099C246.54 23.071 246.771 21.7869 246.771 20.2575C246.771 17.9489 246.28 16.232 245.299 15.1065C244.318 13.9523 243.019 13.3751 241.403 13.3751C240.336 13.3751 239.398 13.6349 238.59 14.1543C237.782 14.6448 237.147 15.4095 236.685 16.4484C236.253 17.4584 236.036 18.7281 236.036 20.2575C236.036 22.5372 236.527 24.2686 237.508 25.4517C238.489 26.606 239.787 27.1831 241.403 27.1831Z" fill="#86FFC5"/>
<path fill-rule="evenodd" clip-rule="evenodd" d="M14.6072 16.9756C14.6098 18.9571 13.193 20.3331 11.4256 20.5012C9.86288 20.6499 6.74047 20.4028 4.91228 20.5278L8.23882 23.8807C8.71054 24.3521 11.1465 26.8302 11.6052 27.1974C14.4964 29.5124 17.4367 30.8669 21.4204 30.8624C21.2577 30.4818 18.3564 27.7143 18.0944 27.4523C17.3791 26.7369 15.2414 24.6698 14.7396 24.0877C14.897 23.9373 15.3479 23.7269 15.5612 23.5836C16.2939 23.0912 17.1813 22.2462 17.6811 21.475C21.3621 15.7946 16.9908 9.21976 11.4039 9.21976H0C0.00110361 11.0012 0.958857 12.2231 1.94614 12.8856C3.38975 13.8544 4.80638 13.6344 6.74427 13.6344C7.95078 13.6344 11.268 13.4956 12.1938 13.7958C13.4229 14.1942 14.6049 15.3608 14.6072 16.9756Z" fill="white"/>
<path fill-rule="evenodd" clip-rule="evenodd" d="M14.6072 16.9756C14.6098 18.9571 13.193 20.3331 11.4256 20.5012C9.86288 20.6499 6.74047 20.4028 4.91228 20.5278L8.23882 23.8807C8.71054 24.3521 11.1465 26.8302 11.6052 27.1974C14.4964 29.5124 17.4367 30.8669 21.4204 30.8624C21.2577 30.4818 18.3564 27.7143 18.0944 27.4523C17.3791 26.7369 15.2414 24.6698 14.7396 24.0877C14.897 23.9373 15.3479 23.7269 15.5612 23.5836C16.2939 23.0912 17.1813 22.2462 17.6811 21.475C21.3621 15.7946 16.9908 9.21976 11.4039 9.21976H0C0.00110361 11.0012 0.958857 12.2231 1.94614 12.8856C3.38975 13.8544 4.80638 13.6344 6.74427 13.6344C7.95078 13.6344 11.268 13.4956 12.1938 13.7958C13.4229 14.1942 14.6049 15.3608 14.6072 16.9756Z" fill="#86FFC5"/>
</svg>
