<svg width="118" height="27" viewBox="0 0 118 27" fill="none" xmlns="http://www.w3.org/2000/svg">
<path d="M14.58 20.16C14.1667 20.16 13.8467 20.0533 13.62 19.84C13.4067 19.6133 13.3 19.2933 13.3 18.88V11.32C13.3 10.9067 13.4067 10.5933 13.62 10.38C13.8333 10.1667 14.1333 10.06 14.52 10.06C14.9067 10.06 15.2067 10.1667 15.42 10.38C15.6333 10.5933 15.74 10.9067 15.74 11.32V12.58H15.54C15.7267 11.78 16.0933 11.1733 16.64 10.76C17.1867 10.3467 17.9133 10.1 18.82 10.02C19.1 9.99333 19.32 10.0667 19.48 10.24C19.6533 10.4 19.7533 10.6533 19.78 11C19.8067 11.3333 19.7267 11.6067 19.54 11.82C19.3667 12.02 19.1 12.14 18.74 12.18L18.3 12.22C17.4867 12.3 16.8733 12.5533 16.46 12.98C16.0467 13.3933 15.84 13.98 15.84 14.74V18.88C15.84 19.2933 15.7333 19.6133 15.52 19.84C15.3067 20.0533 14.9933 20.16 14.58 20.16ZM25.7958 20.2C24.6891 20.2 23.7358 19.9933 22.9358 19.58C22.1358 19.1667 21.5158 18.58 21.0758 17.82C20.6491 17.06 20.4358 16.16 20.4358 15.12C20.4358 14.1067 20.6424 13.22 21.0558 12.46C21.4824 11.7 22.0624 11.1067 22.7958 10.68C23.5424 10.24 24.3891 10.02 25.3358 10.02C26.0291 10.02 26.6491 10.1333 27.1958 10.36C27.7558 10.5867 28.2291 10.9133 28.6158 11.34C29.0158 11.7667 29.3158 12.2867 29.5158 12.9C29.7291 13.5 29.8358 14.18 29.8358 14.94C29.8358 15.18 29.7491 15.3667 29.5758 15.5C29.4158 15.62 29.1824 15.68 28.8758 15.68H22.4558V14.24H28.0758L27.7558 14.54C27.7558 13.9267 27.6624 13.4133 27.4758 13C27.3024 12.5867 27.0424 12.2733 26.6958 12.06C26.3624 11.8333 25.9424 11.72 25.4358 11.72C24.8758 11.72 24.3958 11.8533 23.9958 12.12C23.6091 12.3733 23.3091 12.74 23.0958 13.22C22.8958 13.6867 22.7958 14.2467 22.7958 14.9V15.04C22.7958 16.1333 23.0491 16.9533 23.5558 17.5C24.0758 18.0333 24.8358 18.3 25.8358 18.3C26.1824 18.3 26.5691 18.26 26.9958 18.18C27.4358 18.0867 27.8491 17.9333 28.2358 17.72C28.5158 17.56 28.7624 17.4933 28.9758 17.52C29.1891 17.5333 29.3558 17.6067 29.4758 17.74C29.6091 17.8733 29.6891 18.04 29.7158 18.24C29.7424 18.4267 29.7024 18.62 29.5958 18.82C29.5024 19.02 29.3358 19.1933 29.0958 19.34C28.6291 19.6333 28.0891 19.8533 27.4758 20C26.8758 20.1333 26.3158 20.2 25.7958 20.2ZM35.5756 20.2C34.7223 20.2 33.969 19.9933 33.3156 19.58C32.6756 19.1667 32.1756 18.58 31.8156 17.82C31.4556 17.0467 31.2756 16.14 31.2756 15.1C31.2756 14.0467 31.4556 13.1467 31.8156 12.4C32.1756 11.64 32.6756 11.0533 33.3156 10.64C33.969 10.2267 34.7223 10.02 35.5756 10.02C36.389 10.02 37.0956 10.22 37.6956 10.62C38.309 11.02 38.7223 11.5467 38.9356 12.2H38.7156V7C38.7156 6.58667 38.8223 6.27333 39.0356 6.06C39.249 5.84667 39.5556 5.74 39.9556 5.74C40.3556 5.74 40.6623 5.84667 40.8756 6.06C41.1023 6.27333 41.2156 6.58667 41.2156 7V18.88C41.2156 19.2933 41.109 19.6133 40.8956 19.84C40.6823 20.0533 40.3756 20.16 39.9756 20.16C39.5756 20.16 39.269 20.0533 39.0556 19.84C38.8423 19.6133 38.7356 19.2933 38.7356 18.88V17.32L38.9556 17.92C38.7556 18.6133 38.349 19.1667 37.7356 19.58C37.1223 19.9933 36.4023 20.2 35.5756 20.2ZM36.2756 18.3C36.769 18.3 37.2023 18.18 37.5756 17.94C37.949 17.7 38.2356 17.3467 38.4356 16.88C38.649 16.4 38.7556 15.8067 38.7556 15.1C38.7556 14.0333 38.529 13.24 38.0756 12.72C37.6223 12.1867 37.0223 11.92 36.2756 11.92C35.7823 11.92 35.349 12.04 34.9756 12.28C34.6023 12.5067 34.309 12.86 34.0956 13.34C33.8956 13.8067 33.7956 14.3933 33.7956 15.1C33.7956 16.1533 34.0223 16.9533 34.4756 17.5C34.929 18.0333 35.529 18.3 36.2756 18.3ZM47.0278 20.2C46.3211 20.2 45.6878 20.0667 45.1278 19.8C44.5811 19.52 44.1478 19.1467 43.8278 18.68C43.5211 18.2133 43.3678 17.6867 43.3678 17.1C43.3678 16.38 43.5545 15.8133 43.9278 15.4C44.3011 14.9733 44.9078 14.6667 45.7478 14.48C46.5878 14.2933 47.7145 14.2 49.1278 14.2H50.1278V15.64H49.1478C48.3211 15.64 47.6611 15.68 47.1678 15.76C46.6745 15.84 46.3211 15.98 46.1078 16.18C45.9078 16.3667 45.8078 16.6333 45.8078 16.98C45.8078 17.42 45.9611 17.78 46.2678 18.06C46.5745 18.34 47.0011 18.48 47.5478 18.48C47.9878 18.48 48.3745 18.38 48.7078 18.18C49.0545 17.9667 49.3278 17.68 49.5278 17.32C49.7278 16.96 49.8278 16.5467 49.8278 16.08V13.78C49.8278 13.1133 49.6811 12.6333 49.3878 12.34C49.0945 12.0467 48.6011 11.9 47.9078 11.9C47.5211 11.9 47.1011 11.9467 46.6478 12.04C46.2078 12.1333 45.7411 12.2933 45.2478 12.52C44.9945 12.64 44.7678 12.6733 44.5678 12.62C44.3811 12.5667 44.2345 12.46 44.1278 12.3C44.0211 12.1267 43.9678 11.94 43.9678 11.74C43.9678 11.54 44.0211 11.3467 44.1278 11.16C44.2345 10.96 44.4145 10.8133 44.6678 10.72C45.2811 10.4667 45.8678 10.2867 46.4278 10.18C47.0011 10.0733 47.5211 10.02 47.9878 10.02C48.9478 10.02 49.7345 10.1667 50.3478 10.46C50.9745 10.7533 51.4411 11.2 51.7478 11.8C52.0545 12.3867 52.2078 13.1467 52.2078 14.08V18.88C52.2078 19.2933 52.1078 19.6133 51.9078 19.84C51.7078 20.0533 51.4211 20.16 51.0478 20.16C50.6745 20.16 50.3811 20.0533 50.1678 19.84C49.9678 19.6133 49.8678 19.2933 49.8678 18.88V17.92H50.0278C49.9345 18.3867 49.7478 18.7933 49.4678 19.14C49.2011 19.4733 48.8611 19.7333 48.4478 19.92C48.0345 20.1067 47.5611 20.2 47.0278 20.2ZM59.2653 20.2C58.2386 20.2 57.3453 19.9933 56.5853 19.58C55.8253 19.1533 55.2386 18.5533 54.8253 17.78C54.412 17.0067 54.2053 16.1 54.2053 15.06C54.2053 14.2733 54.3186 13.5733 54.5453 12.96C54.7853 12.3333 55.1253 11.8067 55.5653 11.38C56.0053 10.94 56.5386 10.6067 57.1653 10.38C57.792 10.14 58.492 10.02 59.2653 10.02C59.7053 10.02 60.1786 10.08 60.6853 10.2C61.2053 10.32 61.692 10.52 62.1453 10.8C62.3586 10.9333 62.4986 11.0933 62.5653 11.28C62.632 11.4667 62.6453 11.66 62.6053 11.86C62.5653 12.0467 62.4786 12.2133 62.3453 12.36C62.2253 12.4933 62.072 12.58 61.8853 12.62C61.6986 12.6467 61.492 12.6 61.2653 12.48C60.972 12.3067 60.672 12.18 60.3653 12.1C60.0586 12.0067 59.7653 11.96 59.4853 11.96C59.0453 11.96 58.6586 12.0333 58.3253 12.18C57.992 12.3133 57.7053 12.5133 57.4653 12.78C57.2386 13.0333 57.0653 13.3533 56.9453 13.74C56.8253 14.1267 56.7653 14.5733 56.7653 15.08C56.7653 16.0667 56.9986 16.8467 57.4653 17.42C57.9453 17.98 58.6186 18.26 59.4853 18.26C59.7653 18.26 60.052 18.22 60.3453 18.14C60.652 18.06 60.9586 17.9333 61.2653 17.76C61.492 17.64 61.692 17.6 61.8653 17.64C62.052 17.68 62.2053 17.7733 62.3253 17.92C62.4453 18.0533 62.5186 18.22 62.5453 18.42C62.572 18.6067 62.5453 18.7933 62.4653 18.98C62.3986 19.1667 62.2653 19.32 62.0653 19.44C61.6253 19.7067 61.1586 19.9 60.6653 20.02C60.172 20.14 59.7053 20.2 59.2653 20.2ZM68.698 20.2C67.8313 20.2 67.1046 20.0533 66.518 19.76C65.9446 19.4667 65.518 19.04 65.238 18.48C64.958 17.9067 64.818 17.2 64.818 16.36V12.1H63.778C63.458 12.1 63.2113 12.02 63.038 11.86C62.8646 11.6867 62.778 11.4533 62.778 11.16C62.778 10.8533 62.8646 10.62 63.038 10.46C63.2113 10.3 63.458 10.22 63.778 10.22H64.818V8.4C64.818 7.98667 64.9246 7.67333 65.138 7.46C65.3646 7.24667 65.678 7.14 66.078 7.14C66.478 7.14 66.7846 7.24667 66.998 7.46C67.2113 7.67333 67.318 7.98667 67.318 8.4V10.22H69.438C69.758 10.22 70.0046 10.3 70.178 10.46C70.3513 10.62 70.438 10.8533 70.438 11.16C70.438 11.4533 70.3513 11.6867 70.178 11.86C70.0046 12.02 69.758 12.1 69.438 12.1H67.318V16.22C67.318 16.86 67.458 17.34 67.738 17.66C68.018 17.98 68.4713 18.14 69.098 18.14C69.3246 18.14 69.5246 18.12 69.698 18.08C69.8713 18.04 70.0246 18.0133 70.158 18C70.318 17.9867 70.4513 18.04 70.558 18.16C70.6646 18.2667 70.718 18.4933 70.718 18.84C70.718 19.1067 70.6713 19.3467 70.578 19.56C70.498 19.76 70.3446 19.9 70.118 19.98C69.9446 20.0333 69.718 20.08 69.438 20.12C69.158 20.1733 68.9113 20.2 68.698 20.2ZM73.1738 20.16C72.7604 20.16 72.4404 20.0533 72.2138 19.84C72.0004 19.6133 71.8938 19.2933 71.8938 18.88V11.32C71.8938 10.9067 72.0004 10.5933 72.2138 10.38C72.4271 10.1667 72.7271 10.06 73.1138 10.06C73.5004 10.06 73.8004 10.1667 74.0138 10.38C74.2271 10.5933 74.3338 10.9067 74.3338 11.32V12.58H74.1338C74.3204 11.78 74.6871 11.1733 75.2338 10.76C75.7804 10.3467 76.5071 10.1 77.4138 10.02C77.6938 9.99333 77.9138 10.0667 78.0738 10.24C78.2471 10.4 78.3471 10.6533 78.3738 11C78.4004 11.3333 78.3204 11.6067 78.1338 11.82C77.9604 12.02 77.6938 12.14 77.3338 12.18L76.8938 12.22C76.0804 12.3 75.4671 12.5533 75.0538 12.98C74.6404 13.3933 74.4338 13.98 74.4338 14.74V18.88C74.4338 19.2933 74.3271 19.6133 74.1138 19.84C73.9004 20.0533 73.5871 20.16 73.1738 20.16ZM80.1058 20.16C79.7858 20.16 79.5258 20.0867 79.3258 19.94C79.1391 19.7933 79.0258 19.6 78.9858 19.36C78.9458 19.1067 78.9924 18.8267 79.1258 18.52L84.4058 6.82C84.5791 6.43333 84.7858 6.16 85.0258 6C85.2791 5.82667 85.5658 5.74 85.8858 5.74C86.1924 5.74 86.4658 5.82667 86.7058 6C86.9591 6.16 87.1724 6.43333 87.3458 6.82L92.6458 18.52C92.7924 18.8267 92.8458 19.1067 92.8058 19.36C92.7658 19.6133 92.6524 19.8133 92.4658 19.96C92.2791 20.0933 92.0324 20.16 91.7258 20.16C91.3524 20.16 91.0591 20.0733 90.8458 19.9C90.6458 19.7133 90.4658 19.4333 90.3058 19.06L89.0058 16.04L90.0858 16.74H81.6458L82.7258 16.04L81.4458 19.06C81.2724 19.4467 81.0924 19.7267 80.9058 19.9C80.7191 20.0733 80.4524 20.16 80.1058 20.16ZM85.8458 8.68L83.0458 15.34L82.5258 14.7H89.2058L88.7058 15.34L85.8858 8.68H85.8458ZM95.8486 23.76C95.4486 23.76 95.1419 23.6533 94.9286 23.44C94.7153 23.2267 94.6086 22.9133 94.6086 22.5V11.32C94.6086 10.9067 94.7153 10.5933 94.9286 10.38C95.1419 10.1667 95.4419 10.06 95.8286 10.06C96.2286 10.06 96.5353 10.1667 96.7486 10.38C96.9619 10.5933 97.0686 10.9067 97.0686 11.32V12.88L96.8486 12.28C97.0486 11.6 97.4553 11.0533 98.0686 10.64C98.6953 10.2267 99.4219 10.02 100.249 10.02C101.102 10.02 101.849 10.2267 102.489 10.64C103.142 11.0533 103.649 11.64 104.009 12.4C104.369 13.1467 104.549 14.0467 104.549 15.1C104.549 16.14 104.369 17.0467 104.009 17.82C103.649 18.58 103.149 19.1667 102.509 19.58C101.869 19.9933 101.115 20.2 100.249 20.2C99.4353 20.2 98.7219 20 98.1086 19.6C97.4953 19.1867 97.0819 18.6533 96.8686 18H97.1086V22.5C97.1086 22.9133 96.9953 23.2267 96.7686 23.44C96.5553 23.6533 96.2486 23.76 95.8486 23.76ZM99.5486 18.3C100.042 18.3 100.475 18.18 100.849 17.94C101.222 17.7 101.509 17.3467 101.709 16.88C101.922 16.4 102.029 15.8067 102.029 15.1C102.029 14.0333 101.802 13.24 101.349 12.72C100.895 12.1867 100.295 11.92 99.5486 11.92C99.0553 11.92 98.6219 12.04 98.2486 12.28C97.8753 12.5067 97.5819 12.86 97.3686 13.34C97.1686 13.8067 97.0686 14.3933 97.0686 15.1C97.0686 16.1533 97.2953 16.9533 97.7486 17.5C98.2019 18.0333 98.8019 18.3 99.5486 18.3ZM107.841 23.76C107.441 23.76 107.134 23.6533 106.921 23.44C106.707 23.2267 106.601 22.9133 106.601 22.5V11.32C106.601 10.9067 106.707 10.5933 106.921 10.38C107.134 10.1667 107.434 10.06 107.821 10.06C108.221 10.06 108.527 10.1667 108.741 10.38C108.954 10.5933 109.061 10.9067 109.061 11.32V12.88L108.841 12.28C109.041 11.6 109.447 11.0533 110.061 10.64C110.687 10.2267 111.414 10.02 112.241 10.02C113.094 10.02 113.841 10.2267 114.481 10.64C115.134 11.0533 115.641 11.64 116.001 12.4C116.361 13.1467 116.541 14.0467 116.541 15.1C116.541 16.14 116.361 17.0467 116.001 17.82C115.641 18.58 115.141 19.1667 114.501 19.58C113.861 19.9933 113.107 20.2 112.241 20.2C111.427 20.2 110.714 20 110.101 19.6C109.487 19.1867 109.074 18.6533 108.861 18H109.101V22.5C109.101 22.9133 108.987 23.2267 108.761 23.44C108.547 23.6533 108.241 23.76 107.841 23.76ZM111.541 18.3C112.034 18.3 112.467 18.18 112.841 17.94C113.214 17.7 113.501 17.3467 113.701 16.88C113.914 16.4 114.021 15.8067 114.021 15.1C114.021 14.0333 113.794 13.24 113.341 12.72C112.887 12.1867 112.287 11.92 111.541 11.92C111.047 11.92 110.614 12.04 110.241 12.28C109.867 12.5067 109.574 12.86 109.361 13.34C109.161 13.8067 109.061 14.3933 109.061 15.1C109.061 16.1533 109.287 16.9533 109.741 17.5C110.194 18.0333 110.794 18.3 111.541 18.3Z" fill="#3380FF"/>
<path fill-rule="evenodd" clip-rule="evenodd" d="M6.74925 13.5836C6.7505 14.4992 6.09586 15.1349 5.27923 15.2126C4.55716 15.2813 3.11444 15.1671 2.26973 15.2249L3.80676 16.7741C4.02472 16.9919 5.15026 18.1369 5.36218 18.3066C6.6981 19.3763 8.05665 20.0021 9.89731 20C9.82215 19.8242 8.48158 18.5455 8.36053 18.4244C8.03006 18.0938 7.04232 17.1387 6.81044 16.8698C6.88316 16.8003 7.09153 16.7031 7.19009 16.6368C7.5286 16.4093 7.93864 16.0189 8.16955 15.6626C9.87039 13.0379 7.85063 10 5.26919 10H0C0.000509923 10.8231 0.443041 11.3877 0.899218 11.6938C1.56624 12.1414 2.22079 12.0398 3.1162 12.0398C3.67367 12.0398 5.20637 11.9756 5.63418 12.1143C6.20207 12.2985 6.74825 12.8375 6.74927 13.5836L6.74925 13.5836Z" fill="#09C47C"/>
</svg>
