<svg width="331" height="331" viewBox="0 0 331 331" fill="none" xmlns="http://www.w3.org/2000/svg">
<path d="M103.652 272.092C103.777 273.96 105.33 275.176 107.571 275.176C110.002 275.176 111.526 273.967 111.526 272.034C111.526 270.518 110.64 269.675 108.45 269.126L107.344 268.833C105.908 268.459 105.322 267.983 105.322 267.185C105.322 266.152 106.274 265.442 107.644 265.442C109.021 265.442 109.937 266.138 110.054 267.273H111.372C111.313 265.5 109.79 264.255 107.688 264.255C105.491 264.255 103.953 265.486 103.953 267.244C103.953 268.679 104.817 269.536 106.765 270.034L108.12 270.386C109.541 270.752 110.164 271.301 110.164 272.195C110.164 273.235 109.124 273.989 107.695 273.989C106.187 273.989 105.103 273.235 104.978 272.092H103.652ZM117.415 275.176C119.751 275.176 121.318 274.011 121.802 271.924H120.469C120.088 273.213 118.975 273.96 117.422 273.96C115.334 273.96 114.009 272.305 114.009 269.712C114.009 267.141 115.349 265.471 117.415 265.471C118.923 265.471 120.132 266.379 120.469 267.764H121.802C121.465 265.654 119.714 264.255 117.415 264.255C114.521 264.255 112.654 266.394 112.654 269.712C112.654 273.059 114.5 275.176 117.415 275.176ZM130.232 275H131.616L127.72 264.431H126.416L122.52 275H123.904L124.966 271.975H129.17L130.232 275ZM127.046 266.035H127.09L128.782 270.854H125.354L127.046 266.035ZM134.128 275V266.731H134.194L139.98 275H141.262V264.431H139.958V272.729H139.893L134.106 264.431H132.825V275H134.128ZM144.617 275V266.731H144.683L150.469 275H151.75V264.431H150.447V272.729H150.381L144.595 264.431H143.313V275H144.617ZM160.349 273.813H155.12V270.181H160.078V269.009H155.12V265.618H160.349V264.431H153.801V275H160.349V273.813ZM162.092 264.431V275H165.645C168.787 275 170.632 273.044 170.632 269.712C170.632 266.387 168.779 264.431 165.645 264.431H162.092ZM163.411 265.618H165.557C167.959 265.618 169.285 267.083 169.285 269.727C169.285 272.349 167.952 273.813 165.557 273.813H163.411V265.618ZM181.216 266.614H181.289L183.728 275H184.973L187.852 264.431H186.475L184.358 273.059H184.299L181.919 264.431H180.586L178.206 273.059H178.147L176.03 264.431H174.653L177.532 275H178.777L181.216 266.614ZM193.301 264.255C190.305 264.255 188.43 266.365 188.43 269.719C188.43 273.074 190.305 275.176 193.301 275.176C196.296 275.176 198.171 273.074 198.171 269.719C198.171 266.365 196.296 264.255 193.301 264.255ZM193.301 265.471C195.461 265.471 196.816 267.112 196.816 269.719C196.816 272.319 195.461 273.96 193.301 273.96C191.14 273.96 189.785 272.319 189.785 269.719C189.785 267.112 191.14 265.471 193.301 265.471ZM201.13 265.603H203.599C204.961 265.603 205.781 266.357 205.781 267.625C205.781 268.921 205.012 269.653 203.657 269.653H201.13V265.603ZM201.13 270.818H203.657L205.92 275H207.466L205.02 270.613C206.345 270.195 207.144 269.053 207.144 267.581C207.144 265.676 205.811 264.431 203.774 264.431H199.812V275H201.13V270.818ZM208.806 264.431V275H212.358C215.5 275 217.346 273.044 217.346 269.712C217.346 266.387 215.493 264.431 212.358 264.431H208.806ZM210.125 265.618H212.271C214.673 265.618 215.999 267.083 215.999 269.727C215.999 272.349 214.666 273.813 212.271 273.813H210.125V265.618ZM218.481 272.092C218.606 273.96 220.159 275.176 222.4 275.176C224.832 275.176 226.355 273.967 226.355 272.034C226.355 270.518 225.469 269.675 223.279 269.126L222.173 268.833C220.737 268.459 220.151 267.983 220.151 267.185C220.151 266.152 221.104 265.442 222.473 265.442C223.85 265.442 224.766 266.138 224.883 267.273H226.201C226.143 265.5 224.619 264.255 222.517 264.255C220.32 264.255 218.782 265.486 218.782 267.244C218.782 268.679 219.646 269.536 221.594 270.034L222.949 270.386C224.37 270.752 224.993 271.301 224.993 272.195C224.993 273.235 223.953 273.989 222.524 273.989C221.016 273.989 219.932 273.235 219.807 272.092H218.481Z" fill="#0D080E"/>
<g filter="url(#filter0_d_28_378)">
<rect x="95" y="90" width="141" height="141" rx="8" fill="white"/>
<path d="M183.125 107.625H218.375V137H206.625V119.375H183.125V107.625ZM147.875 107.625V119.375H124.375V137H112.625V107.625H147.875ZM183.125 213.375V201.625H206.625V184H218.375V213.375H183.125ZM147.875 213.375H112.625V184H124.375V201.625H147.875V213.375ZM112.625 154.625H218.375V166.375H112.625V154.625Z" fill="#09C47C"/>
</g>
<defs>
<filter id="filter0_d_28_378" x="0" y="0" width="331" height="331" filterUnits="userSpaceOnUse" color-interpolation-filters="sRGB">
<feFlood flood-opacity="0" result="BackgroundImageFix"/>
<feColorMatrix in="SourceAlpha" type="matrix" values="0 0 0 0 0 0 0 0 0 0 0 0 0 0 0 0 0 0 127 0" result="hardAlpha"/>
<feOffset dy="5"/>
<feGaussianBlur stdDeviation="47.5"/>
<feComposite in2="hardAlpha" operator="out"/>
<feColorMatrix type="matrix" values="0 0 0 0 0 0 0 0 0 0 0 0 0 0 0 0 0 0 0.08 0"/>
<feBlend mode="normal" in2="BackgroundImageFix" result="effect1_dropShadow_28_378"/>
<feBlend mode="normal" in="SourceGraphic" in2="effect1_dropShadow_28_378" result="shape"/>
</filter>
</defs>
</svg>
